:FULLY-SPECIFIED
:FORCE-ALL-JOINTS-BE-3DOF
:DEGREES
102
root 7.35255 16.5909 -26.7583 -5.20794 7.03631 3.18212
lfemur -9.79417 10.7923 -21.0623
ltibia 36.013 0 0
lfoot -23.4021 -8.70507 0
ltoes 33.4107 0 0
rfemur -80.2064 -18.4619 48.1154
rtibia 78.9312 0 0
rfoot 6.50146 16.9405 0
rtoes -20.7998 0 0
lowerback 11.9073 -1.73115 -7.95231
upperback 3.47272 -3.37588 -0.736415
thorax -2.50536 -1.65429 4.5541
lowerneck -11.7744 -1.10788 0.0548684
upperneck -0.154004 -1.56594 2.25886
head 1.9844 -0.702614 0.65306
lclavicle -2.67321e-14 2.78849e-16 0
lhumerus -41.1219 -20.0482 92.5145
lradius 48.1108 0 0
lwrist 13.9889 0 0
lhand 4.4196 6.04156 0
lfingers 7.12502 0 0
lthumb 29.7803 33.3095 0
rclavicle -2.67321e-14 2.78849e-16 0
rhumerus -44.8937 -21.5458 -65.2766
rradius 71.8939 0 0
rwrist -26.6781 0 0
rhand -27.8648 -25.6886 0
rfingers 7.12502 0 0
rthumb -1.25525 -55.6525 0
103
root 7.36397 16.5882 -26.7447 -5.35571 7.13994 3.24116
lfemur -9.69028 10.8789 -21.0675
ltibia 36.021 0 0
lfoot -23.2473 -8.83852 0
ltoes 33.356 0 0
rfemur -80.8309 -18.6544 48.4127
rtibia 79.3801 0 0
rfoot 6.87953 17.2202 0
rtoes -21.2378 0 0
lowerback 12.0591 -1.7864 -7.98323
upperback 3.53488 -3.46181 -0.77528
thorax -2.51306 -1.69833 4.53949
lowerneck -11.7943 -1.09589 0.0348517
upperneck -0.141119 -1.54902 2.2963
head 1.99288 -0.693022 0.668969
lclavicle -2.58915e-14 7.2389e-16 0
lhumerus -41.1129 -20.1458 92.4465
lradius 48.2474 0 0
lwrist 14.106 0 0
lhand 4.58341 6.07057 0
lfingers 7.12502 0 0
lthumb 29.9372 33.3159 0
rclavicle -2.58915e-14 7.2389e-16 0
rhumerus -44.9037 -21.7204 -65.0752
rradius 72.2061 0 0
rwrist -27.0509 0 0
rhand -27.9043 -25.7223 0
rfingers 7.12502 0 0
rthumb -1.29344 -55.6862 0
104
root 7.37539 16.5856 -26.7311 -5.50349 7.24357 3.3002
lfemur -9.58638 10.9656 -21.0727
ltibia 36.029 0 0
lfoot -23.0925 -8.97198 0
ltoes 33.3012 0 0
rfemur -81.4553 -18.8469 48.71
rtibia 79.8291 0 0
rfoot 7.25759 17.4999 0
rtoes -21.6759 0 0
lowerback 12.211 -1.84164 -8.01416
upperback 3.59704 -3.54774 -0.814145
thorax -2.52075 -1.74237 4.52488
lowerneck -11.8141 -1.08389 0.0148351
upperneck -0.128234 -1.5321 2.33375
head 2.00137 -0.683431 0.684877
lclavicle -2.5051e-14 1.16893e-15 0
lhumerus -41.1039 -20.2433 92.3786
lradius 48.384 0 0
lwrist 14.2232 0 0
lhand 4.74722 6.09959 0
lfingers 7.12502 0 0
lthumb 30.094 33.3224 0
rclavicle -2.5051e-14 1.16893e-15 0
rhumerus -44.9138 -21.8949 -64.8738
rradius 72.5182 0 0
rwrist -27.4237 0 0
rhand -27.9439 -25.756 0
rfingers 7.12502 0 0
rthumb -1.33164 -55.7199 0
105
root 7.38682 16.5829 -26.7176 -5.65127 7.3472 3.35924
lfemur -9.48249 11.0523 -21.0779
ltibia 36.037 0 0
lfoot -22.9377 -9.10544 0
ltoes 33.2464 0 0
rfemur -82.0798 -19.0395 49.0073
rtibia 80.2781 0 0
rfoot 7.63566 17.7796 0
rtoes -22.1139 0 0
lowerback 12.3628 -1.89689 -8.04508
upperback 3.6592 -3.63367 -0.85301
thorax -2.52845 -1.78641 4.51027
lowerneck -11.834 -1.0719 -0.00518157
upperneck -0.115348 -1.51518 2.37119
head 2.00985 -0.673839 0.700785
lclavicle -2.42104e-14 1.61397e-15 0
lhumerus -41.095 -20.3408 92.3107
lradius 48.5206 0 0
lwrist 14.3404 0 0
lhand 4.91103 6.12861 0
lfingers 7.12502 0 0
lthumb 30.2509 33.3288 0
rclavicle -2.42104e-14 1.61397e-15 0
rhumerus -44.9239 -22.0695 -64.6725
rradius 72.8303 0 0
rwrist -27.7965 0 0
rhand -27.9834 -25.7897 0
rfingers 7.12502 0 0
rthumb -1.36984 -55.7537 0
106
root 7.39824 16.5802 -26.704 -5.79905 7.45083 3.41828
lfemur -9.3786 11.139 -21.0831
ltibia 36.045 0 0
lfoot -22.7829 -9.23889 0
ltoes 33.1916 0 0
rfemur -82.7042 -19.232 49.3046
rtibia 80.727 0 0
rfoot 8.01372 18.0593 0
rtoes -22.5519 0 0
lowerback 12.5147 -1.95213 -8.07601
upperback 3.72137 -3.7196 -0.891875
thorax -2.53615 -1.83044 4.49566
lowerneck -11.8539 -1.0599 -0.0251982
upperneck -0.102463 -1.49826 2.40863
head 2.01833 -0.664248 0.716693
lclavicle -2.33698e-14 2.05901e-15 0
lhumerus -41.086 -20.4384 92.2427
lradius 48.6572 0 0
lwrist 14.4576 0 0
lhand 5.07484 6.15762 0
lfingers 7.12502 0 0
lthumb 30.4077 33.3352 0
rclavicle -2.33698e-14 2.05901e-15 0
rhumerus -44.9339 -22.2441 -64.4711
rradius 73.1425 0 0
rwrist -28.1693 0 0
rhand -28.023 -25.8234 0
rfingers 7.12502 0 0
rthumb -1.40803 -55.7874 0
107
root 7.40966 16.5776 -26.6904 -5.94682 7.55446 3.47732
lfemur -9.27471 11.2257 -21.0883
ltibia 36.053 0 0
lfoot -22.6281 -9.37235 0
ltoes 33.1369 0 0
rfemur -83.3287 -19.4245 49.6019
rtibia 81.176 0 0
rfoot 8.39179 18.339 0
rtoes -22.99 0 0
lowerback 12.6665 -2.00738 -8.10693
upperback 3.78353 -3.80553 -0.93074
thorax -2.54384 -1.87448 4.48105
lowerneck -11.8737 -1.04791 -0.0452149
upperneck -0.0895781 -1.48135 2.44608
head 2.02682 -0.654656 0.732602
lclavicle -2.25293e-14 2.50405e-15 0
lhumerus -41.077 -20.5359 92.1748
lradius 48.7938 0 0
lwrist 14.5748 0 0
lhand 5.23865 6.18664 0
lfingers 7.12502 0 0
lthumb 30.5646 33.3417 0
rclavicle -2.25293e-14 2.50405e-15 0
rhumerus -44.944 -22.4187 -64.2697
rradius 73.4546 0 0
rwrist -28.5421 0 0
rhand -28.0625 -25.8571 0
rfingers 7.12502 0 0
rthumb -1.44623 -55.8211 0
108
root 7.42108 16.5749 -26.6768 -6.0946 7.65809 3.53636
lfemur -9.17081 11.3123 -21.0935
ltibia 36.061 0 0
lfoot -22.4733 -9.50581 0
ltoes 33.0821 0 0
rfemur -83.9532 -19.617 49.8992
rtibia 81.6249 0 0
rfoot 8.76985 18.6187 0
rtoes -23.428 0 0
lowerback 12.8184 -2.06263 -8.13785
upperback 3.84569 -3.89147 -0.969604
thorax -2.55154 -1.91852 4.46643
lowerneck -11.8936 -1.03591 -0.0652315
upperneck -0.0766929 -1.46443 2.48352
head 2.0353 -0.645065 0.74851
lclavicle -2.16887e-14 2.94909e-15 0
lhumerus -41.0681 -20.6335 92.1069
lradius 48.9304 0 0
lwrist 14.692 0 0
lhand 5.40245 6.21565 0
lfingers 7.12502 0 0
lthumb 30.7214 33.3481 0
rclavicle -2.16887e-14 2.94909e-15 0
rhumerus -44.954 -22.5932 -64.0683
rradius 73.7667 0 0
rwrist -28.9149 0 0
rhand -28.1021 -25.8909 0
rfingers 7.12502 0 0
rthumb -1.48442 -55.8548 0
109
root 7.4325 16.5722 -26.6633 -6.24238 7.76172 3.5954
lfemur -9.06692 11.399 -21.0987
ltibia 36.069 0 0
lfoot -22.3185 -9.63926 0
ltoes 33.0273 0 0
rfemur -84.5776 -19.8095 50.1965
rtibia 82.0739 0 0
rfoot 9.14792 18.8984 0
rtoes -23.8661 0 0
lowerback 12.9702 -2.11787 -8.16878
upperback 3.90785 -3.9774 -1.00847
thorax -2.55923 -1.96256 4.45182
lowerneck -11.9135 -1.02391 -0.0852482
upperneck -0.0638078 -1.44751 2.52097
head 2.04379 -0.635473 0.764418
lclavicle -2.08481e-14 3.39413e-15 0
lhumerus -41.0591 -20.731 92.0389
lradius 49.067 0 0
lwrist 14.8092 0 0
lhand 5.56626 6.24467 0
lfingers 7.12502 0 0
lthumb 30.8782 33.3546 0
rclavicle -2.08481e-14 3.39413e-15 0
rhumerus -44.9641 -22.7678 -63.8669
rradius 74.0789 0 0
rwrist -29.2877 0 0
rhand -28.1416 -25.9246 0
rfingers 7.12502 0 0
rthumb -1.52262 -55.8885 0
110
root 7.44392 16.5695 -26.6497 -6.39015 7.86535 3.65444
lfemur -8.96303 11.4857 -21.104
ltibia 36.077 0 0
lfoot -22.1637 -9.77272 0
ltoes 32.9725 0 0
rfemur -85.2021 -20.0021 50.4938
rtibia 82.5228 0 0
rfoot 9.52598 19.1781 0
rtoes -24.3041 0 0
lowerback 13.1221 -2.17312 -8.1997
upperback 3.97001 -4.06333 -1.04733
thorax -2.56693 -2.0066 4.43721
lowerneck -11.9334 -1.01192 -0.105265
upperneck -0.0509226 -1.43059 2.55841
head 2.05227 -0.625882 0.780327
lclavicle -2.00075e-14 3.83917e-15 0
lhumerus -41.0501 -20.8286 91.971
lradius 49.2036 0 0
lwrist 14.9264 0 0
lhand 5.73007 6.27368 0
lfingers 7.12502 0 0
lthumb 31.0351 33.361 0
rclavicle -2.00075e-14 3.83917e-15 0
rhumerus -44.9741 -22.9424 -63.6655
rradius 74.391 0 0
rwrist -29.6605 0 0
rhand -28.1812 -25.9583 0
rfingers 7.12502 0 0
rthumb -1.56081 -55.9222 0
111
root 7.45534 16.5669 -26.6361 -6.53793 7.96898 3.71349
lfemur -8.85914 11.5724 -21.1092
ltibia 36.085 0 0
lfoot -22.0089 -9.90617 0
ltoes 32.9177 0 0
rfemur -85.8265 -20.1946 50.7911
rtibia 82.9718 0 0
rfoot 9.90405 19.4578 0
rtoes -24.7422 0 0
lowerback 13.274 -2.22836 -8.23062
upperback 4.03217 -4.14926 -1.0862
thorax -2.57462 -2.05063 4.4226
lowerneck -11.9532 -0.999923 -0.125281
upperneck -0.0380374 -1.41367 2.59585
head 2.06076 -0.61629 0.796235
lclavicle -1.9167e-14 4.28421e-15 0
lhumerus -41.0412 -20.9261 91.9031
lradius 49.3402 0 0
lwrist 15.0435 0 0
lhand 5.89388 6.3027 0
lfingers 7.12502 0 0
lthumb 31.1919 33.3675 0
rclavicle -1.9167e-14 4.28421e-15 0
rhumerus -44.9842 -23.117 -63.4641
rradius 74.7032 0 0
rwrist -30.0333 0 0
rhand -28.2207 -25.992 0
rfingers 7.12502 0 0
rthumb -1.59901 -55.9559 0
112
root 7.46676 16.5642 -26.6225 -6.68571 8.07261 3.77253
lfemur -8.75525 11.659 -21.1144
ltibia 36.093 0 0
lfoot -21.8541 -10.0396 0
ltoes 32.863 0 0
rfemur -86.451 -20.3871 51.0884
rtibia 83.4207 0 0
rfoot 10.2821 19.7375 0
rtoes -25.1802 0 0
lowerback 13.4258 -2.28361 -8.26155
upperback 4.09434 -4.23519 -1.12506
thorax -2.58232 -2.09467 4.40799
lowerneck -11.9731 -0.987928 -0.145298
upperneck -0.0251523 -1.39676 2.6333
head 2.06924 -0.606699 0.812143
lclavicle -1.83264e-14 4.72925e-15 0
lhumerus -41.0322 -21.0237 91.8351
lradius 49.4768 0 0
lwrist 15.1607 0 0
lhand 6.05769 6.33171 0
lfingers 7.12502 0 0
lthumb 31.3488 33.3739 0
rclavicle -1.83264e-14 4.72925e-15 0
rhumerus -44.9943 -23.2915 -63.2627
rradius 75.0153 0 0
rwrist -30.406 0 0
rhand -28.2603 -26.0257 0
rfingers 7.12502 0 0
rthumb -1.6372 -55.9896 0
113
root 7.47818 16.5615 -26.609 -6.83348 8.17624 3.83157
lfemur -8.65135 11.7457 -21.1196
ltibia 36.101 0 0
lfoot -21.6993 -10.1731 0
ltoes 32.8082 0 0
rfemur -87.0755 -20.5796 51.3857
rtibia 83.8697 0 0
rfoot 10.6602 20.0172 0
rtoes -25.6183 0 0
lowerback 13.5777 -2.33885 -8.29247
upperback 4.1565 -4.32113 -1.16393
thorax -2.59001 -2.13871 4.39337
lowerneck -11.993 -0.975932 -0.165315
upperneck -0.0122671 -1.37984 2.67074
head 2.07772 -0.597107 0.828052
lclavicle -1.74858e-14 5.17429e-15 0
lhumerus -41.0232 -21.1212 91.7672
lradius 49.6134 0 0
lwrist 15.2779 0 0
lhand 6.22149 6.36073 0
lfingers 7.12502 0 0
lthumb 31.5056 33.3804 0
rclavicle -1.74858e-14 5.17429e-15 0
rhumerus -45.0043 -23.4661 -63.0613
rradius 75.3274 0 0
rwrist -30.7788 0 0
rhand -28.2998 -26.0595 0
rfingers 7.12502 0 0
rthumb -1.6754 -56.0233 0
114
root 7.4896 16.5589 -26.5954 -6.98126 8.27987 3.89061
lfemur -8.54746 11.8324 -21.1248
ltibia 36.109 0 0
lfoot -21.5445 -10.3065 0
ltoes 32.7534 0 0
rfemur -87.6999 -20.7721 51.683
rtibia 84.3186 0 0
rfoot 11.0382 20.2969 0
rtoes -26.0563 0 0
lowerback 13.7295 -2.3941 -8.32339
upperback 4.21866 -4.40706 -1.20279
thorax -2.59771 -2.18275 4.37876
lowerneck -12.0129 -0.963937 -0.185331
upperneck 0.00061806 -1.36292 2.70819
head 2.08621 -0.587516 0.84396
lclavicle -1.66453e-14 5.61933e-15 0
lhumerus -41.0142 -21.2188 91.6993
lradius 49.75 0 0
lwrist 15.3951 0 0
lhand 6.3853 6.38974 0
lfingers 7.12502 0 0
lthumb 31.6624 33.3868 0
rclavicle -1.66453e-14 5.61933e-15 0
rhumerus -45.0144 -23.6407 -62.8599
rradius 75.6396 0 0
rwrist -31.1516 0 0
rhand -28.3394 -26.0932 0
rfingers 7.12502 0 0
rthumb -1.7136 -56.057 0
